<?xml version="1.0" standalone="no"?><!DOCTYPE svg PUBLIC "-//W3C//DTD SVG 1.1//EN" "http://www.w3.org/Graphics/SVG/1.1/DTD/svg11.dtd"><svg t="1601034053654" class="icon" viewBox="0 0 1170 1024" version="1.1" xmlns="http://www.w3.org/2000/svg" p-id="2340" data-darkreader-inline-fill="" xmlns:xlink="http://www.w3.org/1999/xlink" width="228.515625" height="200"><defs><style type="text/css">* {  }
</style></defs><path d="M1056 193.714286h-292v70.857143h292V193.714286z m-144 243.428571q-51.428571 0-83.428571 30T793.142857 548.571429h233.142857q-10.285714-111.428571-114.285714-111.428572z m9.142857 334.285714q36 0 69.714286-18.285714t43.428571-49.714286h126.285715q-57.142857 175.428571-244 175.428572-122.285714 0-194.571429-75.428572T649.714286 605.142857q0-118.857143 74.571428-197.428571T916.571429 329.142857q78.857143 0 137.428571 38.857143t87.428571 102.285714 28.857143 141.714286q0 9.714286-1.142857 26.857143h-376q0 63.428571 32.857143 98T921.142857 771.428571z m-762.857143-28.571428h169.142857q117.142857 0 117.142858-95.428572 0-102.857143-113.714286-102.857142H158.285714v198.285714z m0-306.857143h160.571429q44.571429 0 70.571428-20.857143T415.428571 350.285714q0-82.285714-108.571428-82.285714H158.285714v168z m-158.285714-290.857143h339.428571q49.714286 0 88.571429 8t72.285714 27.142857 51.428572 55.142857T569.714286 323.428571q0 103.428571-98.285715 150.285715 65.142857 18.285714 98.285715 65.714285t33.142857 116.571429q0 42.857143-14 78t-37.714286 59.142857-56.285714 40.571429-69.142857 24-76.571429 7.428571h-349.142857V145.142857z" p-id="2341"></path></svg>