<?xml version="1.0" standalone="no"?><!DOCTYPE svg PUBLIC "-//W3C//DTD SVG 1.1//EN" "http://www.w3.org/Graphics/SVG/1.1/DTD/svg11.dtd"><svg t="1603043754478" class="icon" viewBox="0 0 1152 1024" version="1.1" xmlns="http://www.w3.org/2000/svg" p-id="3285" data-darkreader-inline-fill="" xmlns:xlink="http://www.w3.org/1999/xlink" width="225" height="200"><defs><style type="text/css">* {  }
</style></defs><path d="M804.6 689.8l64-64c10-10 27.4-3 27.4 11.4V928c0 53-43 96-96 96H96c-53 0-96-43-96-96V224c0-53 43-96 96-96h547c14.2 0 21.4 17.2 11.4 27.4l-64 64c-3 3-7 4.6-11.4 4.6H96v704h704V701c0-4.2 1.6-8.2 4.6-11.2z m313.2-403.6L592.6 811.4l-180.8 20c-52.4 5.8-97-38.4-91.2-91.2l20-180.8L865.8 34.2c45.8-45.8 119.8-45.8 165.4 0l86.4 86.4c45.8 45.8 45.8 120 0.2 165.6zM920.2 348L804 231.8 432.4 603.6l-14.6 130.6 130.6-14.6L920.2 348z m129.6-159.4l-86.4-86.4c-8.2-8.2-21.6-8.2-29.6 0L872 164l116.2 116.2 61.8-61.8c8-8.4 8-21.6-0.2-29.8z" p-id="3286"></path></svg>