<?xml version="1.0" standalone="no"?><!DOCTYPE svg PUBLIC "-//W3C//DTD SVG 1.1//EN" "http://www.w3.org/Graphics/SVG/1.1/DTD/svg11.dtd"><svg t="1601009122114" class="icon" viewBox="0 0 1024 1024" version="1.1" xmlns="http://www.w3.org/2000/svg" p-id="3132" data-darkreader-inline-fill="" xmlns:xlink="http://www.w3.org/1999/xlink" width="200" height="200"><defs><style type="text/css">* {  }
</style></defs><path d="M932.571429 54.857143H91.428571c-20.228571 0-36.571429 16.342857-36.571428 36.571428v841.142858c0 20.228571 16.342857 36.571429 36.571428 36.571428h841.142858c20.228571 0 36.571429-16.342857 36.571428-36.571428V91.428571c0-20.228571-16.342857-36.571429-36.571428-36.571428z m-105.6 266.857143h-73.028572c-57.257143 0-68.342857 27.2-68.342857 67.2v88.114285h136.685714l-17.828571 137.942858h-118.857143V969.142857H543.085714V615.085714H423.885714V477.028571h119.2v-101.714285c0-118.057143 72.114286-182.4 177.485715-182.4 50.514286 0 93.828571 3.771429 106.514285 5.485714v123.314286z" p-id="3133"></path></svg>