<?xml version="1.0" standalone="no"?><!DOCTYPE svg PUBLIC "-//W3C//DTD SVG 1.1//EN" "http://www.w3.org/Graphics/SVG/1.1/DTD/svg11.dtd"><svg t="1601033604059" class="icon" viewBox="0 0 1024 1024" version="1.1" xmlns="http://www.w3.org/2000/svg" p-id="1513" data-darkreader-inline-fill="" xmlns:xlink="http://www.w3.org/1999/xlink" width="200" height="200"><defs><style type="text/css">* {  }
</style></defs><path d="M896 0H128a128 128 0 0 0-128 128v768a128 128 0 0 0 128 128h768a128 128 0 0 0 128-128V128a128 128 0 0 0-128-128zM314.768 490.768c0.208-2.032 0.64-3.984 0.912-5.984 0.672-4.96 1.408-9.888 2.448-14.72 0.464-2.176 1.104-4.272 1.648-6.416 1.152-4.576 2.352-9.136 3.808-13.584 0.704-2.112 1.52-4.144 2.272-6.224 1.6-4.352 3.264-8.656 5.152-12.864 0.32-0.72 0.544-1.472 0.88-2.192h0.176c31.488-67.952 100.112-115.2 179.936-115.2 79.808 0 148.432 47.248 179.936 115.2h0.176c0.336 0.72 0.56 1.472 0.896 2.192 1.872 4.208 3.552 8.512 5.136 12.864 0.768 2.08 1.584 4.112 2.272 6.224 1.472 4.448 2.656 8.992 3.808 13.584 0.544 2.144 1.184 4.24 1.664 6.416 1.024 4.832 1.744 9.76 2.432 14.72 0.288 2 0.688 3.952 0.928 5.984 0.72 6.976 1.152 14.048 1.152 21.232 0 109.6-88.848 198.4-198.4 198.4-109.568 0-198.4-88.848-198.4-198.4 0-7.184 0.432-14.256 1.168-21.232zM908.8 857.6a51.2 51.2 0 0 1-51.2 51.2H166.4a51.2 51.2 0 0 1-51.2-51.2V428.8h94.384A313.664 313.664 0 0 0 198.4 512c0 173.2 140.4 313.6 313.6 313.6S825.6 685.2 825.6 512c0-28.8-3.904-56.704-11.184-83.2H908.8v428.8z m0-588.8a51.2 51.2 0 0 1-51.2 51.2h-102.4a51.2 51.2 0 0 1-51.2-51.2v-102.4c0-28.272 22.944-51.2 51.2-51.2h102.4a51.2 51.2 0 0 1 51.2 51.2v102.4z" fill="" p-id="1514"></path></svg>