<?xml version="1.0" standalone="no"?><!DOCTYPE svg PUBLIC "-//W3C//DTD SVG 1.1//EN" "http://www.w3.org/Graphics/SVG/1.1/DTD/svg11.dtd"><svg t="1601034084921" class="icon" viewBox="0 0 1024 1024" version="1.1" xmlns="http://www.w3.org/2000/svg" p-id="3075" data-darkreader-inline-fill="" xmlns:xlink="http://www.w3.org/1999/xlink" width="200" height="200"><defs><style type="text/css">* {  }
</style></defs><path d="M512 0.040958c-282.75605 0-511.979521 229.223471-511.979521 511.979521 0 216.895004 134.937323 402.149674 325.393704 476.75533-4.484941-40.50782-8.519339-102.641654 1.781689-146.876685 9.297548-39.954882 60.044958-254.49478 60.044958-254.49478s-15.318427-30.657334-15.318427-75.99824c0-71.185633 41.265549-124.329107 92.647814-124.329107 43.682093 0 64.775649 32.787169 64.775649 72.107196 0 43.927843-27.954082 109.604576-42.412384 170.448222-12.062238 50.972681 25.558018 92.524939 75.813927 92.524939 91.00948 0 160.945882-95.965441 160.945882-234.466141 0-122.588376-88.080957-208.293748-213.864085-208.293748-145.668413 0-231.168993 109.276909-231.168993 222.178633 0 44.00976 16.956762 91.193792 38.091276 116.833727 4.177753 5.078837 4.792128 9.522819 3.542898 14.683573-3.891044 16.178553-12.512779 50.952202-14.212551 58.078957-2.232231 9.358986-7.413463 11.345466-17.120595 6.840046-63.956482-29.776729-103.931843-123.264189-103.931843-198.340866 0-161.49882 117.345706-309.829527 338.275109-309.829527 177.595456 0 315.625135 126.561338 315.625135 295.698892 0 176.448622-111.24291 318.451262-265.655934 318.451262-51.873765 0-100.655174-26.950602-117.345706-58.795728 0 0-25.680893 97.767609-31.886085 121.707772-11.570737 44.460302-42.76053 100.204632-63.649294 134.220551 47.900804 14.826927 98.812048 22.834287 151.607376 22.834287 282.75605 0 511.979521-229.223471 511.979521-511.979521s-229.223471-511.979521-511.979521-511.979521z" p-id="3076"></path></svg>