<?xml version="1.0" standalone="no"?><!DOCTYPE svg PUBLIC "-//W3C//DTD SVG 1.1//EN" "http://www.w3.org/Graphics/SVG/1.1/DTD/svg11.dtd"><svg t="1603072706634" class="icon" viewBox="0 0 1024 1024" version="1.1" xmlns="http://www.w3.org/2000/svg" p-id="2505" data-darkreader-inline-fill="" xmlns:xlink="http://www.w3.org/1999/xlink" width="200" height="200"><defs><style type="text/css">* {  }
</style></defs><path d="M823.800123 696.2944c-44.977231 0-85.864369 17.717169-114.4832 49.063385L350.875569 536.833969c4.090092-16.354462 4.090092-32.708923 0-49.063385L709.316923 280.611446c28.618831 31.346215 69.505969 50.426092 114.4832 50.426092 87.225108-1.362708 152.644923-66.782523 154.005662-154.007631C976.445046 89.8048 911.025231 23.024246 823.800123 21.661538c-87.225108 1.362708-154.007631 68.143262-155.370338 155.370338 0 9.538954 1.362708 19.079877 2.727385 28.6208L315.441231 410.0864c-28.6208-31.346215-68.145231-51.790769-115.845908-51.790769-87.225108 1.362708-154.007631 66.782523-155.370338 154.007631 1.362708 87.225108 68.145231 152.644923 155.370338 154.005662 44.975262 0 87.225108-20.442585 115.845908-51.790769l355.715938 205.7984c-1.362708 9.540923-2.727385 19.079877-2.727385 29.983508 1.362708 87.227077 68.145231 152.644923 155.370338 154.007631 87.225108-1.362708 152.644923-66.780554 154.005662-154.007631C976.445046 763.074954 911.025231 697.655138 823.800123 696.2944z" p-id="2506"></path></svg>